<?xml version="1.0" encoding="UTF-8"?>
<svg id="Layer_1" data-name="Layer 1" xmlns="http://www.w3.org/2000/svg" viewBox="0 0 1804.88 1248.78">
  <defs>
    <style>
      .cls-1 {
        fill: #fff;
      }

      .cls-2 {
        fill: red;
      }
    </style>
  </defs>
  <g>
    <path class="cls-1" d="M83.32,174.91H341.9c43.09,0,76.18,10.67,99.25,32.02,23.07,21.35,34.61,47.77,34.61,79.28,0,26.43-8.23,49.09-24.7,68-10.98,12.61-27.04,22.56-48.18,29.88,32.12,7.73,55.75,20.99,70.9,39.79,15.14,18.81,22.72,42.44,22.72,70.9,0,23.17-5.39,44.01-16.16,62.51-10.78,18.5-25.51,33.14-44.21,43.91-11.59,6.71-29.07,11.59-52.45,14.64-31.1,4.07-51.74,6.1-61.9,6.1H83.32V174.91Zm139.35,175.33h60.07c21.55,0,36.54-3.71,44.98-11.13,8.43-7.42,12.65-18.14,12.65-32.17,0-13.01-4.22-23.17-12.65-30.49-8.44-7.32-23.13-10.98-44.06-10.98h-60.99v84.77Zm0,175.64h70.44c23.78,0,40.56-4.22,50.31-12.65,9.76-8.43,14.64-19.77,14.64-34,0-13.21-4.83-23.83-14.48-31.86-9.66-8.03-26.58-12.04-50.77-12.04h-70.13v90.56Z"/>
    <path class="cls-1" d="M574.26,174.91h138.44v447.03h-138.44V174.91Z"/>
    <path class="cls-1" d="M812.41,174.91h138.13v168.93l144.69-168.93h183.72l-163.13,168.73,170.45,278.3h-170.11l-94.25-183.84-71.37,74.75v109.08h-138.13V174.91Z"/>
    <path class="cls-1" d="M1331.7,174.91h374v95.44h-235.57v71.05h214.97v91.17h-214.97v88.12h238.46v101.24h-376.89V174.91Z"/>
  </g>
  <g>
    <path class="cls-1" d="M83.32,637.78H238.37l59.79,272,59.37-272h154.95v447.03h-96.55v-340.91l-74.4,340.91h-87.4l-74.26-340.91v340.91H83.32v-447.03Z"/>
    <path class="cls-1" d="M822.25,1011.01h-133.85l-18.6,73.79h-120.38l143.4-447.03h128.6l143.37,447.03h-123.46l-19.09-73.79Zm-24.46-96.66l-42.11-160.7-41.67,160.7h83.79Z"/>
    <path class="cls-1" d="M992.64,637.78h333.64v89.34l-214.17,261.63h221.98v96.05h-362.01v-92.7l211.93-258.88h-191.37v-95.44Z"/>
    <path class="cls-1" d="M1386.92,637.78h319.77v95.44h-201.61v71.05h183.48v91.17h-183.48v88.13h203.52v101.23h-321.67v-447.03Z"/>
  </g>
  <rect class="cls-2" x="83.32" y="1098.5" width="1625.27" height="77.64"/>
  <rect class="cls-2" x="82.32" y="81.43" width="1625.27" height="77.64"/>
</svg>